<mxfile host="app.diagrams.net" modified="2021-05-07T06:52:11.103Z" agent="5.0 (Windows NT 10.0; Win64; x64) AppleWebKit/537.36 (KHTML, like Gecko) Chrome/89.0.4389.114 Safari/537.36" etag="RQa9swW1vpQbN-5JVthn" version="14.6.1" type="github">
  <diagram id="llIrLhlr9xIxOQOr6Ofy" name="Page-1">
    <mxGraphModel dx="1422" dy="762" grid="1" gridSize="10" guides="1" tooltips="1" connect="1" arrows="1" fold="1" page="1" pageScale="1" pageWidth="827" pageHeight="1169" math="0" shadow="0">
      <root>
        <mxCell id="0" />
        <mxCell id="1" parent="0" />
        <mxCell id="qvkjvQOMLvkmMmmxw2Dg-8" value="" style="edgeStyle=orthogonalEdgeStyle;rounded=0;orthogonalLoop=1;jettySize=auto;html=1;" edge="1" parent="1" source="qvkjvQOMLvkmMmmxw2Dg-1" target="qvkjvQOMLvkmMmmxw2Dg-2">
          <mxGeometry relative="1" as="geometry" />
        </mxCell>
        <mxCell id="qvkjvQOMLvkmMmmxw2Dg-1" value="start" style="ellipse;whiteSpace=wrap;html=1;" vertex="1" parent="1">
          <mxGeometry x="330" y="40" width="110" height="70" as="geometry" />
        </mxCell>
        <mxCell id="qvkjvQOMLvkmMmmxw2Dg-9" value="" style="edgeStyle=orthogonalEdgeStyle;rounded=0;orthogonalLoop=1;jettySize=auto;html=1;" edge="1" parent="1" source="qvkjvQOMLvkmMmmxw2Dg-2" target="qvkjvQOMLvkmMmmxw2Dg-3">
          <mxGeometry relative="1" as="geometry" />
        </mxCell>
        <mxCell id="qvkjvQOMLvkmMmmxw2Dg-2" value="带有code请求后端服务" style="rounded=0;whiteSpace=wrap;html=1;" vertex="1" parent="1">
          <mxGeometry x="325" y="160" width="120" height="60" as="geometry" />
        </mxCell>
        <mxCell id="qvkjvQOMLvkmMmmxw2Dg-10" value="" style="edgeStyle=orthogonalEdgeStyle;rounded=0;orthogonalLoop=1;jettySize=auto;html=1;" edge="1" parent="1" source="qvkjvQOMLvkmMmmxw2Dg-3" target="qvkjvQOMLvkmMmmxw2Dg-4">
          <mxGeometry relative="1" as="geometry" />
        </mxCell>
        <mxCell id="qvkjvQOMLvkmMmmxw2Dg-3" value="通过DB查询AppId和secret&amp;nbsp;" style="rounded=0;whiteSpace=wrap;html=1;" vertex="1" parent="1">
          <mxGeometry x="325" y="280" width="120" height="60" as="geometry" />
        </mxCell>
        <mxCell id="qvkjvQOMLvkmMmmxw2Dg-11" value="" style="edgeStyle=orthogonalEdgeStyle;rounded=0;orthogonalLoop=1;jettySize=auto;html=1;" edge="1" parent="1" source="qvkjvQOMLvkmMmmxw2Dg-4" target="qvkjvQOMLvkmMmmxw2Dg-5">
          <mxGeometry relative="1" as="geometry" />
        </mxCell>
        <mxCell id="qvkjvQOMLvkmMmmxw2Dg-4" value="后端服务请求微信接口" style="rounded=0;whiteSpace=wrap;html=1;" vertex="1" parent="1">
          <mxGeometry x="325" y="400" width="120" height="60" as="geometry" />
        </mxCell>
        <mxCell id="qvkjvQOMLvkmMmmxw2Dg-12" value="" style="edgeStyle=orthogonalEdgeStyle;rounded=0;orthogonalLoop=1;jettySize=auto;html=1;" edge="1" parent="1" source="qvkjvQOMLvkmMmmxw2Dg-5" target="qvkjvQOMLvkmMmmxw2Dg-6">
          <mxGeometry relative="1" as="geometry" />
        </mxCell>
        <mxCell id="qvkjvQOMLvkmMmmxw2Dg-5" value="生成新的token" style="rounded=0;whiteSpace=wrap;html=1;" vertex="1" parent="1">
          <mxGeometry x="325" y="510" width="120" height="60" as="geometry" />
        </mxCell>
        <mxCell id="qvkjvQOMLvkmMmmxw2Dg-13" value="" style="edgeStyle=orthogonalEdgeStyle;rounded=0;orthogonalLoop=1;jettySize=auto;html=1;" edge="1" parent="1" source="qvkjvQOMLvkmMmmxw2Dg-6" target="qvkjvQOMLvkmMmmxw2Dg-7">
          <mxGeometry relative="1" as="geometry" />
        </mxCell>
        <mxCell id="qvkjvQOMLvkmMmmxw2Dg-6" value="重定向给前端" style="rounded=0;whiteSpace=wrap;html=1;" vertex="1" parent="1">
          <mxGeometry x="325" y="640" width="120" height="60" as="geometry" />
        </mxCell>
        <mxCell id="qvkjvQOMLvkmMmmxw2Dg-7" value="end" style="ellipse;whiteSpace=wrap;html=1;" vertex="1" parent="1">
          <mxGeometry x="335" y="760" width="100" height="60" as="geometry" />
        </mxCell>
      </root>
    </mxGraphModel>
  </diagram>
</mxfile>
